# xmcd
#
# Track frame offsets: 
#        150
#        5714
#        19727
#        28606
#        42975
#        55592
#        71242
#        79066
#        90204
#        98957
#        111696
#        121088
#        131675
#        143000
#
# Disc length: 2116 seconds
#
# Revision: 0
# Processed by: cddbd v1.5.2PL0 Copyright (c) Steve Scherf et al.
# Submitted via: ExactAudioCopy v0.95a5
#
DISCID=b808420e
DTITLE=The Blue Mountain Boys - Tall and Gran
DYEAR=2006
DGENRE=Bluegrass
TTITLE0=Idaho
TTITLE1=En Man Som Är Sårad
TTITLE2=Black Eyed Suzie
TTITLE3=Where Joy Kills Sorrow
TTITLE4=Cora Is Gone
TTITLE5=Åreskutans Topp
TTITLE6=Springtime In Glory
TTITLE7=Virginia Darling
TTITLE8=Rosenbad Blues
TTITLE9=Cryin My Heart Out Over You
TTITLE10=Children, Go Where I Sent Thee
TTITLE11=Ants In My Hands
TTITLE12=Hej, Hej, Bartender
TTITLE13=Tall and Gran
EXTD=
EXTT0=
EXTT1=
EXTT2=
EXTT3=
EXTT4=
EXTT5=
EXTT6=
EXTT7=
EXTT8=
EXTT9=
EXTT10=
EXTT11=
EXTT12=
EXTT13=
PLAYORDER=
